<svg viewBox="0 0 60 60" xmlns="http://www.w3.org/2000/svg" xmlns:xlink="http://www.w3.org/1999/xlink" width="60.000000" height="60.000000" fill="none">
	<rect id="people" width="60.000000" height="60.000000" x="0.000000" y="0.000000" fill="rgb(255,255,255)" fill-opacity="0" />
	<g id="Group">
		<g id="Group">
			<path id="Vector" d="M30.4463 28.3544C35.7072 28.3544 39.9883 24.0733 39.9883 18.8111C39.9883 13.5508 35.7079 9.27173 30.4463 9.27173C25.1861 9.27173 20.907 13.5508 20.907 18.8111C20.907 24.0733 25.1861 28.3544 30.4463 28.3544Z" fill="rgb(249,239,227)" fill-rule="nonzero" />
			<path id="Vector" d="M37.4038 26.7883C35.5273 28.4446 33.0666 29.4587 30.3726 29.4587C27.7036 29.4587 25.1934 28.4631 23.3222 26.8338C23.3064 26.8444 23.1468 26.8595 23.129 26.8675C20.046 28.3259 18.0521 30.8453 18.0521 33.9626L18.0521 51.1213L42.3495 51.1213L42.3495 33.9606C42.3488 30.8551 40.5422 28.2461 37.4038 26.7883Z" fill="rgb(176,224,212)" fill-rule="nonzero" />
		</g>
		<path id="Vector" d="M12.5294 32.8325L12.5294 41.1817L2.58984 41.1817L2.58984 31.3714C2.58984 29.5635 3.67446 28.2283 5.4138 27.4035C6.5505 28.3464 8.10787 28.914 9.69622 28.914C11.1936 28.914 12.6204 28.4057 13.7261 27.5578L14.5233 28.1189C12.8169 29.8918 12.5294 32.7 12.5294 32.8325ZM9.7971 27.8097C6.78787 27.8097 4.33973 25.3602 4.33973 22.3496C4.33973 19.3391 6.78787 16.8896 9.7971 16.8896C12.809 16.8896 15.2597 19.3391 15.2597 22.3496C15.2597 25.3602 12.8096 27.8097 9.7971 27.8097Z" fill="rgb(224,241,248)" fill-rule="nonzero" />
		<path id="Vector" d="M45.9488 28.2733L46.8217 27.7128C47.9288 28.5588 49.3325 29.0678 50.8292 29.0678C52.4176 29.0678 53.934 28.5001 55.0714 27.5572C56.8114 28.3827 57.809 29.7172 57.809 31.5251L57.809 41.1818L47.8707 41.1818L47.8707 32.9869C47.8707 32.8544 47.6565 30.0456 45.9488 28.2733ZM45.3092 22.5027C45.3092 19.4922 47.76 17.0427 50.7718 17.0427C53.7811 17.0427 56.2292 19.4922 56.2292 22.5027C56.2292 25.5133 53.7811 27.9634 50.7718 27.9634C47.76 27.9634 45.3092 25.5133 45.3092 22.5027Z" fill="rgb(224,241,248)" fill-rule="nonzero" />
		<g id="Group">
			<g id="Group">
				<path id="Vector" d="M30.2334 30.6553C23.756 30.6553 18.4852 25.3839 18.4852 18.9039C18.4852 12.4259 23.756 7.15576 30.2334 7.15576C36.712 7.15576 41.9841 12.4259 41.9841 18.9039C41.9841 25.3839 36.712 30.6553 30.2334 30.6553ZM30.2334 10.4689C25.5817 10.4689 21.7984 14.2529 21.7984 18.9039C21.7984 23.5575 25.5817 27.3421 30.2334 27.3421C34.8857 27.3421 38.6709 23.5575 38.6709 18.9039C38.6703 14.2529 34.885 10.4689 30.2334 10.4689Z" fill="rgb(69,75,83)" fill-rule="nonzero" />
				<path id="Vector" d="M42.7517 52.3746C41.8365 52.3746 41.0948 51.6329 41.0948 50.7177L41.0948 34.0535C41.0948 31.3397 39.5499 29.1382 36.7451 27.8564C35.913 27.476 35.5477 26.4935 35.9275 25.6608C36.3086 24.8281 37.2897 24.4621 38.1231 24.8432C42.1181 26.6702 44.4079 30.027 44.4079 34.0542L44.4079 50.7177C44.4086 51.6329 43.6668 52.3746 42.7517 52.3746Z" fill="rgb(69,75,83)" fill-rule="nonzero" />
				<path id="Vector" d="M17.8793 52.3762C16.9642 52.3762 16.2224 51.6344 16.2224 50.7192L16.2224 34.0544C16.2224 30.0937 18.4253 26.7799 22.2666 24.9628C23.0947 24.5704 24.0811 24.9245 24.4727 25.7513C24.8644 26.5781 24.511 27.5658 23.6842 27.9575C20.9703 29.2412 19.5363 31.3498 19.5363 34.0544L19.5363 50.7186C19.5363 51.6344 18.7945 52.3762 17.8793 52.3762Z" fill="rgb(69,75,83)" fill-rule="nonzero" />
				<path id="Vector" d="M9.79115 30.0646C5.56478 30.0646 2.125 26.6242 2.125 22.3958C2.125 18.1668 5.56478 14.7271 9.79115 14.7271C14.0215 14.7271 17.4632 18.1668 17.4632 22.3958C17.4626 26.6242 14.0215 30.0646 9.79115 30.0646ZM9.79115 18.0402C7.39115 18.0402 5.43819 19.9939 5.43819 22.3952C5.43819 24.7965 7.39115 26.7501 9.79115 26.7501C12.1951 26.7501 14.1494 24.7965 14.1494 22.3952C14.1494 19.9939 12.1945 18.0402 9.79115 18.0402Z" fill="rgb(69,75,83)" fill-rule="nonzero" />
				<path id="Vector" d="M2.43427 42.7478C1.5191 42.7478 0.777344 42.006 0.777344 41.0908L0.777344 31.4177C0.777344 28.7592 2.158 26.6407 4.66482 25.4526C5.49097 25.0623 6.47932 25.413 6.87097 26.2405C7.26328 27.0673 6.91119 28.055 6.08372 28.4467C4.74262 29.0823 4.09119 30.0541 4.09119 31.4177L4.09119 41.0908C4.09119 42.006 3.34943 42.7478 2.43427 42.7478Z" fill="rgb(69,75,83)" fill-rule="nonzero" />
				<path id="Vector" d="M50.7389 30.0646C46.5105 30.0646 43.0701 26.6242 43.0701 22.3958C43.0701 18.1668 46.5105 14.7271 50.7389 14.7271C54.9672 14.7271 58.407 18.1668 58.407 22.3958C58.407 26.6242 54.9672 30.0646 50.7389 30.0646ZM50.7389 18.0402C48.3369 18.0402 46.3839 19.9939 46.3839 22.3952C46.3839 24.7965 48.3375 26.7501 50.7389 26.7501C53.1402 26.7501 55.0931 24.7965 55.0931 22.3952C55.0931 19.9939 53.1402 18.0402 50.7389 18.0402Z" fill="rgb(69,75,83)" fill-rule="nonzero" />
				<path id="Vector" d="M58.1934 42.7477C57.2789 42.7477 56.5371 42.0059 56.5371 41.0907L56.5371 31.4176C56.5371 30.027 55.86 29.0406 54.4648 28.4024C53.6327 28.022 53.2674 27.0382 53.6485 26.2068C54.0296 25.374 55.0134 25.0101 55.8441 25.3905C58.4274 26.5734 59.8503 28.7136 59.8503 31.4182L59.8503 41.0914C59.8503 42.0059 59.1085 42.7477 58.1934 42.7477Z" fill="rgb(69,75,83)" fill-rule="nonzero" />
			</g>
		</g>
	</g>
</svg>
