<svg viewBox="0 0 161 154.945" xmlns="http://www.w3.org/2000/svg" xmlns:xlink="http://www.w3.org/1999/xlink" width="161.000000" height="154.945312" fill="none" customFrame="#000000">
	<g id="present">
		<g id="knot">
			<path id="Vector" d="M58.1443 18.5798C53.1763 13.0673 51.7853 9.29553 42.9423 3.00928C33.1058 3.00928 15.1218 20.4174 21.1827 29.7017C32.2116 41.9841 74.9359 43.2413 80.5994 42.3709C81.2949 41.3071 61.6218 22.7385 58.1443 18.5798Z" fill="rgb(255,207,72)" fill-rule="nonzero" />
			<path id="Vector" d="M53.077 16.7422C48.7052 11.4231 47.4135 7.84472 39.3654 1.94531C30.5225 1.94531 14.327 18.5797 19.7917 27.3805C29.7276 39.0826 68.1795 40.3398 73.2468 39.4694C73.9424 38.4056 56.1571 20.7074 53.077 16.7422Z" fill="rgb(255,188,51)" fill-rule="nonzero" />
			<path id="Vector" d="M117.164 3.00928C108.321 9.19882 106.83 12.9706 101.962 18.5798C98.484 22.7384 78.7116 41.4038 79.6058 42.4676C85.1699 43.4347 127.994 42.0808 138.923 29.7984C144.885 20.4174 127 3.10599 117.164 3.00928Z" fill="rgb(255,207,72)" fill-rule="nonzero" />
			<path id="Vector" d="M42.9423 3.00928C33.1058 3.00928 15.1218 20.4174 21.1827 29.7017C32.2116 41.9841 74.9359 43.2413 80.5994 42.3709C81.2949 41.3071 61.6218 22.7385 58.1443 18.5798C53.1763 13.0673 51.7853 9.29553 42.9423 3.00928Z" fill-rule="nonzero" stroke="rgb(0,0,0)" stroke-width="6.000000" />
			<path id="Vector" d="M101.962 18.5798C98.484 22.7384 78.7116 41.4038 79.6058 42.4676C85.1699 43.4347 127.994 42.0808 138.923 29.7984C144.885 20.4174 127 3.10599 117.164 3.00928C108.321 9.19882 106.83 12.9706 101.962 18.5798Z" fill-rule="nonzero" stroke="rgb(0,0,0)" stroke-width="6.000000" />
		</g>
		<g id="box">
			<path id="Vector" d="M139.122 52.3323L20.8846 52.3323C14.3269 52.3323 8.96155 57.5547 8.96155 63.9377L8.96155 140.34C8.96155 146.723 14.3269 151.945 20.8846 151.945L139.122 151.945C145.68 151.945 151.045 146.723 151.045 140.34L151.045 63.9377C151.045 57.5547 145.68 52.3323 139.122 52.3323Z" fill="rgb(255,86,59)" fill-rule="nonzero" />
			<path id="Vector" d="M148.163 69.7402L22.9711 69.7402C22.9711 70.0304 22.8718 70.2238 22.8718 70.5139L22.8718 138.696C22.8718 144.402 27.5416 149.044 33.4038 149.044L137.731 149.044C147.17 149.721 148.263 145.272 148.263 138.696L148.263 70.5139C148.263 70.2238 148.163 70.0304 148.163 69.7402Z" fill="rgb(255,110,80)" fill-rule="nonzero" />
			<path id="Vector" d="M20.8846 52.3323C14.3269 52.3323 8.96155 57.5547 8.96155 63.9377L8.96155 140.34C8.96155 146.723 14.3269 151.945 20.8846 151.945L139.122 151.945C145.68 151.945 151.045 146.723 151.045 140.34L151.045 63.9377C151.045 57.5547 145.68 52.3323 139.122 52.3323L20.8846 52.3323Z" fill-rule="nonzero" stroke="rgb(0,0,0)" stroke-width="6.000000" />
		</g>
		<g id="hat">
			<path id="Vector" d="M94.4103 62.9707L65.5962 62.9707L65.5962 151.945L94.4103 151.945L94.4103 62.9707Z" fill="rgb(255,207,72)" fill-rule="evenodd" />
			<path id="Vector" d="M89.4423 23.3188L70.5641 23.3188C67.7821 23.3188 65.5962 25.4465 65.5962 28.1544L65.5962 44.5954C65.5962 47.3033 67.7821 49.431 70.5641 49.431L89.4423 49.431C92.2244 49.431 94.4103 47.3033 94.4103 44.5954L94.4103 28.1544C94.4103 25.4465 92.2244 23.3188 89.4423 23.3188Z" fill="rgb(255,207,72)" fill-rule="nonzero" />
			<path id="Vector" d="M94.4103 62.9707L94.4103 151.945L65.5962 151.945L65.5962 62.9707L94.4103 62.9707Z" stroke="rgb(0,0,0)" stroke-width="6.000000" />
			<path id="Vector" d="M70.5641 23.3188C67.7821 23.3188 65.5962 25.4465 65.5962 28.1544L65.5962 44.5954C65.5962 47.3033 67.7821 49.431 70.5641 49.431L89.4423 49.431C92.2244 49.431 94.4103 47.3033 94.4103 44.5954L94.4103 28.1544C94.4103 25.4465 92.2244 23.3188 89.4423 23.3188L70.5641 23.3188Z" fill-rule="nonzero" stroke="rgb(0,0,0)" stroke-width="6.000000" />
		</g>
		<path id="Vector" d="M3 66.8389L3 53.2993C3 46.3361 8.36538 40.7268 14.9231 40.7268L146.077 40.7268C152.635 40.7268 158 46.3361 158 53.2993L158 66.8389L3 66.8389Z" fill="rgb(255,86,59)" fill-rule="evenodd" />
		<path id="Vector" d="M3 53.2993C3 46.3361 8.36538 40.7268 14.9231 40.7268L146.077 40.7268C152.635 40.7268 158 46.3361 158 53.2993L158 66.8389L3 66.8389L3 53.2993Z" fill-rule="evenodd" stroke="rgb(0,0,0)" stroke-width="6.000000" />
		<path id="Vector" d="M22.8718 63.744L22.8718 53.2992C22.8718 47.98 27.4423 43.628 33.0064 43.628L144.984 43.628C151.144 43.1444 155.019 48.1734 155.119 53.2992L155.119 63.744L22.8718 63.744Z" fill="rgb(255,110,80)" fill-rule="evenodd" />
	</g>
</svg>
