<svg viewBox="0 0 60 60" xmlns="http://www.w3.org/2000/svg" xmlns:xlink="http://www.w3.org/1999/xlink" width="60.000000" height="60.000000" fill="none">
	<rect id="wallet" width="60.000000" height="60.000000" x="0.000000" y="0.000000" fill="rgb(255,255,255)" fill-opacity="0" />
	<path id="Vector" d="M30 60C46.5685 60 60 46.5685 60 30C60 13.4315 46.5685 0 30 0C13.4315 0 0 13.4315 0 30C0 46.5685 13.4315 60 30 60Z" fill="rgb(61,185,227)" fill-rule="evenodd" />
	<path id="Vector" d="M55 11L7 11C5.89543 11 5 11.8954 5 13L5 46C5 47.1046 5.89543 48 7 48L55 48C56.1046 48 57 47.1046 57 46L57 13C57 11.8954 56.1046 11 55 11Z" fill="rgb(52,56,64)" fill-rule="evenodd" />
	<path id="Vector" d="M11 15L47 0L52 15L11 15Z" fill="rgb(44,166,81)" fill-rule="nonzero" />
	<path id="Vector" d="M52 14L7 14C5.89543 14 5 14.8954 5 16L5 49C5 50.1046 5.89543 51 7 51L52 51C53.1046 51 54 50.1046 54 49L54 16C54 14.8954 53.1046 14 52 14Z" fill="rgb(70,76,89)" fill-rule="evenodd" />
	<path id="Vector" d="M7 17L9 17" stroke="rgb(30,48,100)" stroke-width="1.750000" />
	<path id="Vector" d="M7 17L9 17" stroke="rgb(255,251,1)" stroke-width="1.000000" />
	<path id="Vector" d="M11 17L13 17" stroke="rgb(30,48,100)" stroke-width="1.750000" />
	<path id="Vector" d="M11 17L13 17" stroke="rgb(255,251,1)" stroke-width="1.000000" />
	<path id="Vector" d="M15 17L17 17" stroke="rgb(30,48,100)" stroke-width="1.750000" />
	<path id="Vector" d="M15 17L17 17" stroke="rgb(255,251,1)" stroke-width="1.000000" />
	<path id="Vector" d="M19 17L21 17" stroke="rgb(30,48,100)" stroke-width="1.750000" />
	<path id="Vector" d="M19 17L21 17" stroke="rgb(255,251,1)" stroke-width="1.000000" />
	<path id="Vector" d="M23 17L25 17" stroke="rgb(30,48,100)" stroke-width="1.750000" />
	<path id="Vector" d="M23 17L25 17" stroke="rgb(255,251,1)" stroke-width="1.000000" />
	<path id="Vector" d="M27 17L29 17" stroke="rgb(30,48,100)" stroke-width="1.750000" />
	<path id="Vector" d="M27 17L29 17" stroke="rgb(255,251,1)" stroke-width="1.000000" />
	<path id="Vector" d="M31 17L33 17" stroke="rgb(30,48,100)" stroke-width="1.750000" />
	<path id="Vector" d="M31 17L33 17" stroke="rgb(255,251,1)" stroke-width="1.000000" />
	<path id="Vector" d="M35 17L37 17" stroke="rgb(30,48,100)" stroke-width="1.750000" />
	<path id="Vector" d="M35 17L37 17" stroke="rgb(255,251,1)" stroke-width="1.000000" />
	<path id="Vector" d="M39 17L41 17" stroke="rgb(30,48,100)" stroke-width="1.750000" />
	<path id="Vector" d="M39 17L41 17" stroke="rgb(255,251,1)" stroke-width="1.000000" />
	<path id="Vector" d="M43 17L45 17" stroke="rgb(30,48,100)" stroke-width="1.750000" />
	<path id="Vector" d="M43 17L45 17" stroke="rgb(255,251,1)" stroke-width="1.000000" />
	<path id="Vector" d="M47 17L49 17" stroke="rgb(30,48,100)" stroke-width="1.750000" />
	<path id="Vector" d="M47 17L49 17" stroke="rgb(255,251,1)" stroke-width="1.000000" />
	<path id="Vector" d="M51 17L53 17" stroke="rgb(30,48,100)" stroke-width="1.750000" />
	<path id="Vector" d="M51 17L53 17" stroke="rgb(255,251,1)" stroke-width="1.000000" />
	<path id="Vector" d="M7 48L9 48" stroke="rgb(30,48,100)" stroke-width="1.750000" />
	<path id="Vector" d="M7 48L9 48" stroke="rgb(255,251,1)" stroke-width="1.000000" />
	<path id="Vector" d="M11 48L13 48" stroke="rgb(30,48,100)" stroke-width="1.750000" />
	<path id="Vector" d="M11 48L13 48" stroke="rgb(255,251,1)" stroke-width="1.000000" />
	<path id="Vector" d="M15 48L17 48" stroke="rgb(30,48,100)" stroke-width="1.750000" />
	<path id="Vector" d="M15 48L17 48" stroke="rgb(255,251,1)" stroke-width="1.000000" />
	<path id="Vector" d="M19 48L21 48" stroke="rgb(30,48,100)" stroke-width="1.750000" />
	<path id="Vector" d="M19 48L21 48" stroke="rgb(255,251,1)" stroke-width="1.000000" />
	<path id="Vector" d="M23 48L25 48" stroke="rgb(30,48,100)" stroke-width="1.750000" />
	<path id="Vector" d="M23 48L25 48" stroke="rgb(255,251,1)" stroke-width="1.000000" />
	<path id="Vector" d="M27 48L29 48" stroke="rgb(30,48,100)" stroke-width="1.750000" />
	<path id="Vector" d="M27 48L29 48" stroke="rgb(255,251,1)" stroke-width="1.000000" />
	<path id="Vector" d="M31 48L33 48" stroke="rgb(30,48,100)" stroke-width="1.750000" />
	<path id="Vector" d="M31 48L33 48" stroke="rgb(255,251,1)" stroke-width="1.000000" />
	<path id="Vector" d="M35 48L37 48" stroke="rgb(30,48,100)" stroke-width="1.750000" />
	<path id="Vector" d="M35 48L37 48" stroke="rgb(255,251,1)" stroke-width="1.000000" />
	<path id="Vector" d="M39 48L41 48" stroke="rgb(30,48,100)" stroke-width="1.750000" />
	<path id="Vector" d="M39 48L41 48" stroke="rgb(255,251,1)" stroke-width="1.000000" />
	<path id="Vector" d="M43 48L45 48" stroke="rgb(30,48,100)" stroke-width="1.750000" />
	<path id="Vector" d="M43 48L45 48" stroke="rgb(255,251,1)" stroke-width="1.000000" />
	<path id="Vector" d="M47 48L49 48" stroke="rgb(30,48,100)" stroke-width="1.750000" />
	<path id="Vector" d="M47 48L49 48" stroke="rgb(255,251,1)" stroke-width="1.000000" />
	<path id="Vector" d="M51 48L53 48" stroke="rgb(30,48,100)" stroke-width="1.750000" />
	<path id="Vector" d="M51 48L53 48" stroke="rgb(255,251,1)" stroke-width="1.000000" />
	<path id="Vector" d="M43.5 10C44.8807 10 46 8.88071 46 7.5C46 6.11929 44.8807 5 43.5 5C42.1193 5 41 6.11929 41 7.5C41 8.88071 42.1193 10 43.5 10Z" fill="rgb(77,182,120)" fill-rule="evenodd" />
	<path id="Vector" d="M43 28L54 28L54 38L43 38C42.7348 38 42.4804 37.8946 42.2929 37.7071C42.1054 37.5196 42 37.2652 42 37L42 29C42 28.7348 42.1054 28.4804 42.2929 28.2929C42.4804 28.1054 42.7348 28 43 28Z" fill="rgb(52,56,64)" fill-rule="nonzero" />
	<path id="Vector" d="M45.5 34.5C46.3284 34.5 47 33.8284 47 33C47 32.1716 46.3284 31.5 45.5 31.5C44.6716 31.5 44 32.1716 44 33C44 33.8284 44.6716 34.5 45.5 34.5Z" fill="rgb(141,141,147)" fill-rule="evenodd" />
	<path id="Vector" d="M50.5 35.5C51.8807 35.5 53 34.3807 53 33C53 31.6193 51.8807 30.5 50.5 30.5C49.1193 30.5 48 31.6193 48 33C48 34.3807 49.1193 35.5 50.5 35.5Z" fill="rgb(141,141,147)" fill-rule="evenodd" />
	<path id="Vector" d="M50.5 34C51.0523 34 51.5 33.5523 51.5 33C51.5 32.4477 51.0523 32 50.5 32C49.9477 32 49.5 32.4477 49.5 33C49.5 33.5523 49.9477 34 50.5 34Z" fill="rgb(222,220,224)" fill-rule="evenodd" />
</svg>
