<svg viewBox="0 0 50 49.9333" xmlns="http://www.w3.org/2000/svg" xmlns:xlink="http://www.w3.org/1999/xlink" width="50.000000" height="49.933350" fill="none">
	<rect id="chart" width="50.000000" height="49.933422" x="0.000000" y="0.000000" fill="rgb(255,255,255)" fill-opacity="0" />
	<path id="bar_chart_sorted" d="M50 0L0 0L0 50L50 50L50 0Z" fill="rgb(255,251.44,219.397)" fill-rule="evenodd" />
	<path id="bar_chart_sorted" d="M0 0L50 0L50 50L0 50L0 0ZM1 49L1 1L49 1L49 49L1 49Z" fill="rgb(0,0,0)" fill-opacity="0.579999983" fill-rule="evenodd" />
	<path id="Vector" d="M38.8529 8.78467L31.9177 8.78467L31.9177 41.1488L38.8529 41.1488L38.8529 8.78467Z" fill="rgb(28,78,128)" fill-rule="evenodd" />
	<path id="Vector" d="M38.8529 8.78467L38.8529 41.1488L31.9177 41.1488L31.9177 8.78467L38.8529 8.78467Z" fill-rule="evenodd" stroke="rgb(0,0,0)" stroke-linecap="round" stroke-linejoin="round" stroke-width="1.000000" />
	<path id="Vector" d="M15.7641 22.6548L8.82892 22.6548L8.82892 41.1486L15.7641 41.1486L15.7641 22.6548Z" fill="rgb(234,106,71)" fill-rule="evenodd" />
	<path id="Vector" d="M15.7641 22.6548L15.7641 41.1486L8.82892 41.1486L8.82892 22.6548L15.7641 22.6548Z" fill-rule="evenodd" stroke="rgb(0,0,0)" stroke-linecap="round" stroke-linejoin="round" stroke-width="1.000000" />
	<path id="Vector" d="M27.3228 13.408L20.3876 13.408L20.3876 41.1488L27.3228 41.1488L27.3228 13.408Z" fill="rgb(255,255,255)" fill-rule="evenodd" />
	<path id="Vector" d="M27.3228 13.408L27.3228 41.1488L20.3876 41.1488L20.3876 13.408L27.3228 13.408Z" fill-rule="evenodd" stroke="rgb(0,0,0)" stroke-linecap="round" stroke-linejoin="round" stroke-width="1.000000" />
	<g id="Group">
		<path id="Vector" d="M6.42473 8.59966L4.20547 4.16113L1.98621 8.59966L6.42473 8.59966Z" fill="rgb(32,32,32)" fill-rule="evenodd" />
		<path id="Vector" d="M41.3782 43.553L45.8167 45.7722L41.3782 47.9915L41.3782 43.553Z" fill="rgb(32,32,32)" fill-rule="evenodd" />
		<line id="Line 1" x1="3.33331299" x2="41.6666451" y1="45.6665039" y2="45.6665039" stroke="rgb(32,32,32)" stroke-width="2.000000" />
		<line id="Line 2" x1="0" x2="39.1666679" y1="0" y2="0" stroke="rgb(32,32,32)" stroke-width="2.000000" transform="matrix(-5.24537e-08,1,-1,-3.64262e-08,4.33331,6.6665)" />
	</g>
</svg>
