<svg viewBox="0 0 56.0107 60" xmlns="http://www.w3.org/2000/svg" xmlns:xlink="http://www.w3.org/1999/xlink" width="56.010681" height="60.000000" fill="none" customFrame="#000000">
	<g id="radio">
		<g id="Group">
			<path id="Vector" d="M34.7297 8.30702C34.6329 8.30702 34.5346 8.28751 34.4403 8.24637C34.077 8.08793 33.9123 7.66782 34.0723 7.30808L37.1342 0.425004C37.2318 0.205485 37.4343 0.0496017 37.6731 0.00988346C37.9114 -0.0299772 38.1548 0.0523066 38.3191 0.228263L41.4385 3.56374C41.7083 3.85216 41.6909 4.30245 41.3995 4.56966C41.1086 4.83672 40.6537 4.81964 40.3839 4.53108L38.0085 1.99081L35.3879 7.88193C35.2693 8.14843 35.006 8.30702 34.7297 8.30702Z" fill="rgb(65,90,107)" fill-rule="nonzero" />
			<path id="Vector" d="M49.4973 21.7194L6.51327 21.7194C6.11638 21.7194 5.79453 21.4007 5.79453 21.0076L5.79453 14.5587C5.79453 14.1657 6.11638 13.8469 6.51327 13.8469L49.4973 13.8469C49.8944 13.8469 50.2161 14.1657 50.2161 14.5587L50.2161 21.0076C50.2161 21.4007 49.8942 21.7194 49.4973 21.7194ZM7.23202 20.2958L48.7786 20.2958L48.7786 15.2705L7.23202 15.2705L7.23202 20.2958Z" fill="rgb(65,90,107)" fill-rule="nonzero" />
			<path id="Vector" d="M29.959 59.9999L0 59.9999L0 30.3308L29.9589 30.3308L56.0105 30.3308L56.0105 59.9999L29.959 59.9999Z" fill="rgb(65,90,107)" fill-rule="nonzero" />
			<path id="Vector" d="M1.95356 33.0727L31.9124 33.0727L56.0107 33.0727L56.0107 30.3308L29.959 30.3308L0 30.3308L0 59.9999L1.95356 59.9999L1.95356 33.0727Z" fill="rgb(52,76,89)" fill-rule="nonzero" />
			<path id="Vector" d="M49.8639 1.22959C51.1936 2.54499 50.6934 4.53945 50.7665 7.09907C48.1821 7.02647 46.1696 7.52045 44.8412 6.20363C44.1066 5.4776 44.0735 4.3316 44.7679 3.64401C45.3945 3.02332 46.0413 3.0404 47.019 3.38776C46.6682 2.41972 46.6508 1.7791 47.2777 1.15841C47.9736 0.469393 49.1308 0.502136 49.8639 1.22959Z" fill="rgb(239,62,92)" fill-rule="nonzero" />
			<g id="Group">
				<path id="Vector" d="M49.8639 1.22959C49.1306 0.502136 47.9736 0.469393 47.2779 1.15841C46.9482 1.4847 46.7982 1.81711 46.7795 2.1992C47.4649 1.83633 48.3596 1.9616 48.9655 2.56279C50.0534 3.63903 49.9162 5.17024 49.8707 7.09338C50.1612 7.0901 50.4598 7.09053 50.7665 7.09921C50.6934 4.53945 51.1936 2.54499 49.8639 1.22959Z" fill="rgb(221,44,82)" fill-rule="nonzero" />
			</g>
			<path id="Vector" d="M34.7559 5.28591C35.7746 6.2921 35.776 7.92553 34.7598 8.93429C33.7439 9.94305 32.0953 9.94561 31.0767 8.93942C30.0581 7.93322 30.0548 6.29965 31.0708 5.29075C32.0867 4.28199 33.7372 4.27971 34.7559 5.28591Z" fill="rgb(65,90,107)" fill-rule="nonzero" />
			<path id="Vector" d="M32.6749 9.46636C31.6563 8.46016 31.653 6.82659 32.669 5.81769C33.172 5.31829 33.8305 5.06645 34.491 5.06048C33.4687 4.28946 32.003 4.36505 31.0708 5.29081C30.0548 6.29957 30.0581 7.93329 31.0767 8.93948C31.5912 9.44771 32.2663 9.69769 32.9397 9.69157C32.848 9.62238 32.7587 9.54907 32.6749 9.46636Z" fill="rgb(52,76,89)" fill-rule="nonzero" />
			<path id="Vector" d="M25.5702 3.64278C26.2659 4.3318 26.2327 5.4778 25.4983 6.20383C24.1701 7.52065 22.1561 7.02524 19.5715 7.09785C19.645 4.53822 19.146 2.54519 20.4757 1.22979C21.209 0.502334 22.366 0.469592 23.0603 1.15719C23.6869 1.77787 23.6698 2.41849 23.3191 3.38654C24.2966 3.03918 24.9434 3.0221 25.5702 3.64278Z" fill="rgb(239,62,92)" fill-rule="nonzero" />
			<g id="Group">
				<path id="Vector" d="M21.482 2.58619C22.0559 2.01661 22.8893 1.87496 23.5574 2.16951C23.5328 1.79923 23.3816 1.4755 23.0603 1.15719C22.366 0.469592 21.2088 0.502334 20.4757 1.22979C19.146 2.54519 19.645 4.53822 19.5715 7.09785C19.9164 7.08817 20.2507 7.08873 20.5749 7.09358C20.5292 5.18098 20.3981 3.65844 21.482 2.58619Z" fill="rgb(221,44,82)" fill-rule="nonzero" />
			</g>
			<path id="Vector" d="M8.08901 1.50747C9.95488 3.3553 9.25353 6.15551 9.35688 9.74866C5.7272 9.64616 2.90252 10.3394 1.03665 8.49162C0.00740194 7.47233 -0.0385981 5.86225 0.933006 4.89847C1.81577 4.02581 2.72269 4.05143 4.0955 4.5383C3.60388 3.17877 3.578 2.28048 4.45919 1.40782C5.43396 0.4412 7.05976 0.488179 8.08901 1.50747Z" fill="rgb(239,62,92)" fill-rule="nonzero" />
			<g id="Group">
				<path id="Vector" d="M8.08877 1.50747C7.05953 0.488179 5.43372 0.4412 4.45909 1.40782C3.86555 1.99562 3.68471 2.59567 3.77945 3.33978C3.80245 3.31558 3.82372 3.29124 3.84816 3.26689C4.82278 2.30027 6.44859 2.34725 7.47784 3.36654C9.00647 4.88039 8.81198 7.03386 8.74873 9.73855C8.94897 9.73983 9.15137 9.74282 9.35665 9.74866C9.25329 6.15551 9.95465 3.3553 8.08877 1.50747Z" fill="rgb(221,44,82)" fill-rule="nonzero" />
			</g>
			<path id="Vector" d="M56.0107 20.0112L56.0107 30.3309L29.959 30.3309L0 30.3309L0 20.0112L6.5133 20.0112L49.4974 20.0112L56.0107 20.0112Z" fill="rgb(247,143,75)" fill-rule="nonzero" />
			<path id="Vector" d="M1.95356 22.0135L8.46686 22.0135L51.4508 22.0135L56.0107 22.0135L56.0107 20.0112L49.4974 20.0112L6.5133 20.0112L0 20.0112L0 30.3309L1.95356 30.3309L1.95356 22.0135Z" fill="rgb(226,120,61)" fill-rule="nonzero" />
			<path id="Vector" d="M41.6816 53.5512C46.7174 53.5512 50.7997 49.5084 50.7997 44.5213C50.7997 39.5343 46.7174 35.4915 41.6816 35.4915C36.6459 35.4915 32.5636 39.5343 32.5636 44.5213C32.5636 49.5084 36.6459 53.5512 41.6816 53.5512Z" fill="rgb(239,62,92)" fill-rule="evenodd" />
			<path id="Vector" d="M33.4268 46.372C33.4268 41.3853 37.5093 37.3421 42.545 37.3421C45.8452 37.3421 48.7359 39.0789 50.3364 41.6798C49.1335 38.0857 45.7144 35.4915 41.6818 35.4915C36.6462 35.4915 32.5636 39.5345 32.5636 44.5213C32.5636 46.2399 33.0486 47.8461 33.8903 49.2136C33.591 48.3199 33.4268 47.3651 33.4268 46.372Z" fill="rgb(221,44,82)" fill-rule="nonzero" />
			<path id="Vector" d="M26.0518 49.6804L23.447 49.6804L23.447 52.2614L26.0518 52.2614L26.0518 49.6804Z" fill="rgb(255,255,255)" fill-rule="evenodd" />
			<path id="Vector" d="M26.0518 45.811L23.447 45.811L23.447 48.3906L26.0518 48.3906L26.0518 45.811Z" fill="rgb(255,255,255)" fill-rule="evenodd" />
			<path id="Vector" d="M26.0518 41.9417L23.447 41.9417L23.447 44.5212L26.0518 44.5212L26.0518 41.9417Z" fill="rgb(255,255,255)" fill-rule="evenodd" />
			<path id="Vector" d="M26.0518 38.071L23.447 38.071L23.447 40.6506L26.0518 40.6506L26.0518 38.071Z" fill="rgb(255,255,255)" fill-rule="evenodd" />
			<path id="Vector" d="M22.1432 49.6804L16.9337 49.6804L16.9337 52.2614L22.1432 52.2614L22.1432 49.6804Z" fill="rgb(255,255,255)" fill-rule="evenodd" />
			<path id="Vector" d="M22.1432 45.811L19.5385 45.811L19.5385 48.3906L22.1432 48.3906L22.1432 45.811Z" fill="rgb(255,255,255)" fill-rule="evenodd" />
			<path id="Vector" d="M22.1432 41.9417L16.9337 41.9417L16.9337 44.5212L22.1432 44.5212L22.1432 41.9417Z" fill="rgb(255,255,255)" fill-rule="evenodd" />
			<path id="Vector" d="M22.1432 38.071L19.5385 38.071L19.5385 40.6506L22.1432 40.6506L22.1432 38.071Z" fill="rgb(255,255,255)" fill-rule="evenodd" />
			<path id="Vector" d="M18.2361 45.811L15.6313 45.811L15.6313 48.3906L18.2361 48.3906L18.2361 45.811Z" fill="rgb(255,255,255)" fill-rule="evenodd" />
			<path id="Vector" d="M18.2361 38.071L15.6313 38.071L15.6313 40.6506L18.2361 40.6506L18.2361 38.071Z" fill="rgb(255,255,255)" fill-rule="evenodd" />
			<path id="Vector" d="M15.6313 49.6804L13.0267 49.6804L13.0267 52.2614L15.6313 52.2614L15.6313 49.6804Z" fill="rgb(255,255,255)" fill-rule="evenodd" />
			<path id="Vector" d="M15.6313 41.9417L13.0267 41.9417L13.0267 44.5212L15.6313 44.5212L15.6313 41.9417Z" fill="rgb(255,255,255)" fill-rule="evenodd" />
			<path id="Vector" d="M14.329 45.811L9.11804 45.811L9.11804 48.3906L14.329 48.3906L14.329 45.811Z" fill="rgb(255,255,255)" fill-rule="evenodd" />
			<path id="Vector" d="M14.329 38.071L9.11804 38.071L9.11804 40.6506L14.329 40.6506L14.329 38.071Z" fill="rgb(255,255,255)" fill-rule="evenodd" />
			<path id="Vector" d="M11.7228 49.6804L9.11804 49.6804L9.11804 52.2614L11.7228 52.2614L11.7228 49.6804Z" fill="rgb(255,255,255)" fill-rule="evenodd" />
			<path id="Vector" d="M11.7228 41.9417L9.11804 41.9417L9.11804 44.5212L11.7228 44.5212L11.7228 41.9417Z" fill="rgb(255,255,255)" fill-rule="evenodd" />
			<path id="Vector" d="M7.81568 49.6804L5.21094 49.6804L5.21094 52.2614L7.81568 52.2614L7.81568 49.6804Z" fill="rgb(255,255,255)" fill-rule="evenodd" />
			<path id="Vector" d="M7.81568 45.811L5.21094 45.811L5.21094 48.3906L7.81568 48.3906L7.81568 45.811Z" fill="rgb(255,255,255)" fill-rule="evenodd" />
			<path id="Vector" d="M7.81568 41.9417L5.21094 41.9417L5.21094 44.5212L7.81568 44.5212L7.81568 41.9417Z" fill="rgb(255,255,255)" fill-rule="evenodd" />
			<path id="Vector" d="M7.81568 38.071L5.21094 38.071L5.21094 40.6506L7.81568 40.6506L7.81568 38.071Z" fill="rgb(255,255,255)" fill-rule="evenodd" />
			<path id="Vector" d="M50.7997 25.8836L5.21091 25.8836C4.81387 25.8836 4.49216 25.5648 4.49216 25.1718C4.49216 24.7787 4.81387 24.46 5.21091 24.46L50.7997 24.46C51.1967 24.46 51.5185 24.7787 51.5185 25.1718C51.5185 25.5648 51.1967 25.8836 50.7997 25.8836Z" fill="rgb(226,120,61)" fill-rule="nonzero" />
			<path id="Vector" d="M44.2878 27.1736C43.8908 27.1736 43.5691 26.8548 43.5691 26.4618L43.5691 23.8822C43.5691 23.4892 43.8908 23.1704 44.2878 23.1704C44.6849 23.1704 45.0066 23.4892 45.0066 23.8822L45.0066 26.4618C45.0066 26.8548 44.6849 27.1736 44.2878 27.1736Z" fill="rgb(226,120,61)" fill-rule="nonzero" />
			<path id="Vector" d="M49.4974 42.6536L37.7746 42.6536C37.3775 42.6536 37.0558 42.335 37.0558 41.9418C37.0558 41.5486 37.3775 41.23 37.7746 41.23L49.4974 41.23C49.8944 41.23 50.2161 41.5486 50.2161 41.9418C50.2161 42.335 49.8943 42.6536 49.4974 42.6536Z" fill="rgb(255,255,255)" fill-rule="nonzero" />
			<path id="Vector" d="M50.3599 46.6084L34.7299 46.6084C34.3329 46.6084 34.0112 46.2898 34.0112 45.8966C34.0112 45.5034 34.3329 45.1848 34.7299 45.1848L50.3597 45.1848C50.7568 45.1848 51.0785 45.5034 51.0785 45.8966C51.0785 46.2898 50.7568 46.6084 50.3599 46.6084Z" fill="rgb(255,255,255)" fill-rule="nonzero" />
			<path id="Vector" d="M44.2878 53.5512C43.8908 53.5512 43.5691 53.2106 43.5691 52.7907L43.5691 36.2519C43.5691 35.832 43.8908 35.4915 44.2878 35.4915C44.6849 35.4915 45.0066 35.832 45.0066 36.2519L45.0066 52.7907C45.0066 53.2106 44.6849 53.5512 44.2878 53.5512Z" fill="rgb(255,255,255)" fill-rule="nonzero" />
			<path id="Vector" d="M29.959 39.0592C29.562 39.0592 29.2403 38.7406 29.2403 38.3474L29.2403 31.8971C29.2403 31.5039 29.562 31.1853 29.959 31.1853C30.3559 31.1853 30.6776 31.5039 30.6776 31.8971L30.6776 38.3474C30.6776 38.7406 30.3558 39.0592 29.959 39.0592Z" fill="rgb(52,76,89)" fill-rule="nonzero" />
			<path id="Vector" d="M41.6817 54.263C36.2577 54.263 31.8447 49.8928 31.8447 44.5212C31.8447 39.1495 36.2576 34.7795 41.6817 34.7795C47.1058 34.7795 51.5185 39.1495 51.5185 44.5212C51.5185 49.8928 47.1058 54.263 41.6817 54.263ZM41.6817 36.2031C37.0502 36.2031 33.2822 39.9347 33.2822 44.5212C33.2822 49.1079 37.0502 52.8394 41.6817 52.8394C46.313 52.8394 50.081 49.1079 50.081 44.5212C50.081 39.9347 46.313 36.2031 41.6817 36.2031Z" fill="rgb(255,255,255)" fill-rule="nonzero" />
		</g>
	</g>
</svg>
